PathFileType	4	(X/Y/Z)	C:/Users/beibeiliu/ov580/test_trc/User3\sequence.25_training_dense_right.trc
DataRate	CameraRate	NumFrames	NumMarkers	Units	OrigDataRate	OrigDataStartFrame	OrigNumFrames
120	120	22	19	mm	120	240	274
Frame#	Time	ThumbCMC			ThumbMCP			ThumbIP			ThumbTip			IndexMCP			IndexPIP			IndexTip			MiddleMCP			MiddlePIP			MiddleTip			RingMCP			RingPIP			RingTip			PinkyMCP			PinkyPIP			PinkyTip			BackHand1			BackHand2			BackHand3	
		X0	Y0	Z0	X1	Y1	Z1	X2	Y2	Z2	X3	Y3	Z3	X4	Y4	Z4	X5	Y5	Z5	X6	Y6	Z6	X7	Y7	Z7	X8	Y8	Z8	X9	Y9	Z9	X10	Y10	Z10	X11	Y11	Z11	X12	Y12	Z12	X13	Y13	Z13	X14	Y14	Z14	X15	Y15	Z15	X16	Y16	Z16	X17	Y17	Z17	X18	Y18	Z18	
239	1.99167	169.062	31.5744	21.8224	155.607	36.2786	-2.21254	139.851	34.2359	-29.8473	122.83	9.74549	-41.0555	147.484	10.3268	-46.4629	116.311	18.7385	-50.6112	110.509	28.9152	-18.0602	133.628	-9.86132	-42.5061	104.246	0.719481	-33.9616	123.304	10.9336	1.11158	126.531	-25.3924	-33.1038	102.801	-13.1843	-20.2479	122.534	-4.61027	6.95445	138.077	-44.8808	-16.7036	125.603	-43.5881	-36.4303	104.252	-45.3007	-55.1525	171.955	-28.8674	4.85401	182.336	-26.9629	34.2284	187.393	0.594255	15.3556	
240	2	168.885	27.6175	22.9261	156.218	38.9697	-6.14885	146.302	39.1537	-31.4349	133.922	32.3769	-53.7304	156.838	5.6506	-50.7126	124.32	12.8539	-53.492	118.82	23.9513	-25.9744	146.116	-11.083	-48.3461	118.22	-1.35557	-41.0201	135.277	6.73506	-2.89724	144.829	-25.8758	-39.2285	116.849	-17.0551	-31.2556	125.642	-7.308	-3.59055	156.963	-44.8237	-29.0411	147.635	-42.0212	-46.8875	130.775	-41.5975	-65.0727	184.753	-30.1069	6.64099	191.628	-28.9375	37.6339	194.55	2.80918	13.4793	
241	2.00833	167.799	25.7672	21.0505	154.294	33.4131	-8.73939	148.287	34.99	-35.7657	141.265	29.6656	-59.6067	167.603	9.40595	-51.6367	136.713	9.16984	-59.9321	124.357	16.4077	-29.9225	160.339	-9.43915	-51.4263	129.222	-5.94402	-45.1496	140.07	-5.28597	-8.35324	161.213	-26.7193	-45.0409	130.51	-25.4415	-38.1305	134.995	-18.9985	-7.60832	176.088	-41.9572	-32.2508	168.227	-41.3215	-53.7743	155.51	-42.8662	-77.8704	198.87	-24.8213	3.7965	198.748	-23.2928	34.1042	198.44	7.2116	12.9943	
242	2.01667	165.303	20.1815	19.7021	154.135	23.2149	-7.68197	145.269	30.6549	-36.1332	141.606	25.1104	-56.7381	173.924	13.3425	-51.2927	142.344	4.11227	-61.8931	128.613	0.999402	-31.5819	170.258	-11.9035	-52.1751	137.009	-13.978	-45.3007	146.723	-13.392	-10.279	174.379	-28.9155	-45.2426	142.707	-32.673	-42.242	145.818	-26.9477	-6.94737	191.523	-42.0844	-34.6155	185.032	-42.803	-59.9843	178.319	-42.775	-82.7599	205.545	-19.8966	-0.0219772	206.896	-23.3608	33.832	198.485	9.82883	18.5039	
243	2.025	160.967	13.2648	22.9418	149.876	16.5591	-7.32939	144.702	19.2822	-37.547	139.313	16.8587	-60.1686	172.083	3.37016	-56.4391	143.323	-6.39154	-62.4366	131.062	-10.9679	-31.9321	176.083	-17.7299	-52.3465	144.454	-29.0214	-49.5364	151.89	-22.612	-10.1121	178.946	-33.0201	-47.4157	150.988	-42.1076	-43.372	148.891	-36.6912	-11.2173	198.24	-41.9387	-36.8852	193.328	-44.9291	-60.1462	188.061	-49.0861	-78.6652	212.833	-23.5179	-1.6283	210.431	-23.8169	31.1353	197.689	8.93308	15.9821	
244	2.03333	158.702	3.82189	22.1123	148.48	4.78938	-9.92095	141.232	6.06003	-41.4618	136.302	1.33028	-62.1438	171.241	-8.9187	-55.2502	142.349	-23.5226	-61.2471	134.091	-24.8081	-27.5361	175.214	-25.8535	-53.6105	147.189	-43.1804	-47.3652	154.805	-32.2694	-9.28919	182.579	-45.2863	-47.5294	156.808	-59.3395	-41.3883	153.948	-46.3278	-6.66805	203.529	-51.897	-37.0335	196.495	-55.2979	-58.2889	190.144	-63.6047	-81.9664	213.765	-23.2734	0.90411	212.111	-26.5222	31.4687	195.222	3.98054	10.5284	
245	2.04167	155.832	-3.28908	21.5335	143.554	-5.10178	-9.9129	135.766	-8.00896	-36.0969	131.665	-17.7588	-58.9844	166.647	-20.132	-53.197	138.795	-36.0386	-59.8699	134.379	-38.705	-23.9014	172.338	-42.4267	-53.2202	145.563	-57.0272	-44.7995	149.969	-44.7087	-8.12211	182.428	-58.0851	-43.6659	154.34	-69.9951	-35.4145	154.467	-60.514	-5.39466	202.574	-62.8372	-37.679	194.307	-68.6774	-54.6433	184.2	-78.165	-74.8316	211.003	-30.5688	-2.86026	211.608	-27.517	32.1251	190.176	-2.03152	12.0626	
246	2.05	149.756	-7.46628	20.863	135.407	-13.369	-7.36495	127.258	-21.543	-32.3564	123.705	-33.6216	-54.9856	157.255	-32.9907	-50.4013	129.244	-52.908	-50.8663	126.217	-49.9183	-19.3003	163.835	-54.7959	-49.2581	140.113	-71.2607	-35.3328	147.797	-49.4002	-1.87175	173.938	-63.2852	-39.9714	151.244	-82.9033	-26.7742	152.94	-67.5999	2.40104	197.214	-68.5969	-30.9123	189.963	-79.1166	-48.1334	170.021	-96.5527	-64.6473	208.723	-35.7508	-1.02318	210.015	-29.4025	31.3199	183.965	-5.50597	11.3638	
247	2.05833	143.511	-9.30096	24.2127	126.68	-17.1684	-2.11487	115.505	-27.7711	-26.8429	109.062	-40.9769	-46.3757	144.046	-40.5518	-46.3345	118.763	-62.5071	-41.7112	117.277	-52.5138	-9.35234	151.513	-60.8518	-42.2511	128.239	-77.0339	-25.9634	138.633	-55.3655	4.10691	163.08	-76.3945	-33.959	144.15	-90.2038	-16.4334	146.371	-69.9992	10.6496	189.434	-77.9494	-27.8472	174.199	-91.0358	-42.3202	152.521	-109.332	-39.5587	199.539	-39.512	3.22057	202.167	-28.8531	29.3163	177.966	-8.96513	8.21408	
248	2.06667	140.22	-10.1547	28.097	120.211	-16.0682	5.70149	106.475	-28.9231	-20.9359	99.6274	-48.3844	-37.0145	130.515	-47.4384	-40.3054	107.175	-67.6858	-34.8802	104.003	-58.4142	-2.92894	136.779	-70.1478	-35.3759	113.221	-79.2163	-16.7888	129.072	-57.5861	11.2677	148.634	-78.0754	-24.9654	127.241	-90.661	-9.54642	136.199	-68.844	18.0326	173.494	-83.5526	-20.6759	154.151	-99.5447	-30.6922	129.071	-111.404	-14.7223	190.081	-43.6207	1.72388	201.465	-34.3691	28.8864	171.765	-15.3872	9.34422	
249	2.075	139.231	-6.90742	30.9361	114.966	-12.7408	4.88868	101.188	-28.3906	-13.9923	99.3391	-57.345	-23.9467	115.212	-47.3603	-35.7042	87.6534	-60.7438	-27.6282	88.5273	-55.6754	4.37238	119.47	-69.157	-30.1473	95.9017	-75.6347	-10.5966	118.606	-55.9086	18.8383	128.306	-79.7259	-19.374	110.836	-87.2989	2.91568	124.581	-65.0978	24.9349	153.068	-84.5542	-16.9868	135.662	-104.352	-21.6031	109.253	-105.118	-3.26433	176.993	-45.2964	0.598364	192.068	-35.5248	28.4268	168.524	-17.0867	9.45737	
250	2.08333	133.585	-0.849494	28.7407	107.993	-3.16047	11.2636	90.1298	-20.7769	-9.9813	90.8818	-49.5865	-12.035	99.5621	-38.4662	-30.7152	75.2758	-52.1189	-21.3461	74.272	-43.4397	10.7556	106.442	-59.9236	-23.4549	82.3423	-68.1653	-1.83441	105.344	-49.3826	24.2669	117.675	-75.3373	-11.1847	96.3894	-80.4203	10.3696	115.082	-57.6087	31.6867	137.839	-84.5036	-10.9561	115.196	-99.5685	-18.4438	91.0799	-103.267	-4.91991	167.495	-45.6944	3.28727	181.78	-37.3185	25.5116	157.932	-14.1248	7.38408	
251	2.09167	133.085	8.37283	32.5638	108.348	5.15791	16.6272	87.2092	-8.07461	-1.53256	81.8776	-38.439	-8.35193	95.613	-24.2668	-24.694	62.8656	-32.7667	-14.3733	69.6663	-28.8201	19.9952	95.2452	-46.3123	-20.1017	70.8049	-52.0726	3.67815	94.0981	-35.7832	29.6782	102.313	-63.0553	-7.37946	84.168	-67.8233	17.0337	105.376	-46.1349	34.9605	124.294	-78.9701	-7.73889	101.558	-88.3385	-15.6777	76.3039	-95.5326	-15.0101	157.613	-43.4485	1.86777	175.827	-40.0115	26.4946	154.114	-11.0442	9.81738	
252	2.1	133.716	15.5335	35.5184	107.765	17.1107	14.902	85.6943	6.39662	-1.66394	78.1392	-18.7201	-4.26748	94.0738	-14.8881	-23.3783	60.3963	-17.3199	-12.984	65.3666	-9.41203	20.8947	89.2378	-33.4895	-18.2664	64.7437	-37.2311	2.31918	93.1596	-22.3498	30.389	94.9446	-49.4402	-5.58866	75.7379	-51.1669	18.3308	100.566	-33.3487	37.0231	112.736	-63.7855	-7.07239	94.1023	-76.6153	-14.7052	71.535	-84.5662	-20.0514	153.69	-40.1398	4.63057	172.554	-36.9665	28.3534	154.938	-6.74519	12.1115	
253	2.10833	137.92	23.1101	33.0442	115.247	27.3413	18.0289	89.8496	21.535	-6.87381	77.0789	-3.30677	-12.5417	96.239	4.25538	-26.4584	63.5541	4.60065	-17.1778	66.5429	8.76095	14.4117	90.1109	-16.2873	-20.5243	64.5038	-17.2939	2.69294	93.144	-7.42276	29.2801	91.564	-37.0961	-8.29655	73.1075	-32.4018	13.2019	98.3195	-19.5341	33.8473	108.747	-55.622	-6.87418	92.0145	-60.036	-17.1049	70.7937	-67.3528	-27.988	148.977	-34.0408	5.69466	170.636	-29.6709	28.3367	158.41	-1.4148	13.1058	
254	2.11667	144.897	28.0854	34.6586	122.362	35.3379	14.1462	101.894	34.523	-8.26285	86.6647	13.1109	-17.0595	102.396	13.3927	-31.4719	74.1907	17.8284	-22.3021	81.5215	23.4713	13.595	97.5485	-3.82319	-24.9634	70.9281	0.557226	-3.65651	101.626	2.46693	23.729	95.4614	-23.1779	-14.0427	75.3567	-15.9412	8.18969	103.342	-8.36536	27.6539	110.897	-46.4074	-12.0906	91.8859	-43.8788	-26.752	74.1594	-48.0744	-36.2762	153.668	-30.3265	7.10947	169.736	-25.6321	27.8976	163.929	5.53804	14.3833	
255	2.125	151.138	36.3268	33.8454	128.87	45.5414	9.34257	109.081	53.0889	-12.1725	89.8975	42.392	-29.7808	118.405	23.3303	-34.474	85.7787	31.3336	-25.7049	97.4777	31.5094	8.6517	106.136	4.90227	-30.8775	81.4282	10.9111	-11.0422	106.534	11.1054	17.0792	107.014	-14.0349	-20.2976	83.4842	-6.0796	1.65163	107.458	-0.724033	20.518	119.076	-36.98	-18.2614	102.749	-35.0295	-34.3807	87.398	-33.814	-48.2721	156.877	-23.2825	3.79868	173.874	-23.0283	32.7959	169.214	11.3909	13.4777	
256	2.13333	155.643	38.6714	28.4978	135.313	49.6579	8.32623	119.187	57.8336	-15.1573	104.017	53.6827	-31.0811	129.369	30.4239	-39.0371	99.7839	39.9765	-31.6197	109.849	35.0784	1.65102	121.436	9.67971	-36.1597	93.1204	17.1861	-18.5334	118.913	16.8727	12.7442	115.755	-2.00611	-29.6491	93.6987	-1.78371	-10.6625	114.398	3.8571	14.8741	130.429	-27.2681	-28.2125	117.22	-22.5655	-44.9	106.102	-23.9823	-59.8649	167.171	-15.6964	2.71076	178.616	-18.4954	29.4767	179.087	11.3504	16.0407	
257	2.14167	161.17	42.9626	31.6012	142.72	50.2319	7.66467	127.721	62.4343	-15.4866	115.312	57.9871	-37.8778	142.706	40.5497	-41.7095	111.802	40.1656	-32.4971	121.919	34.6769	-3.39752	134.466	20.0519	-42.22	106.287	23.2162	-26.7994	127.931	16.582	6.94106	131.199	1.95422	-36.5672	105.223	3.69123	-19.8183	121.701	6.62052	7.69114	144.934	-21.7735	-32.8642	135.519	-19.1105	-50.6997	123.974	-16.7635	-73.4312	175.434	-13.784	-1.63345	184.923	-18.082	28.1872	185.61	15.5966	17.2167	
258	2.15	163.713	38.7101	31.2366	148.044	53.9358	3.97694	136.104	61.3509	-19.8082	124.67	59.3931	-43.9877	157.455	39.4571	-44.0495	122.988	39.8379	-38.681	128.733	30.9019	-10.7961	148.214	17.2111	-45.9854	117.18	22.5215	-30.3626	137.973	13.5915	1.80019	143.787	-1.40618	-44.3735	117.173	2.12696	-29.7687	132.63	2.01938	1.42244	161.672	-19.0877	-35.1243	153.957	-18.6209	-60.2285	146.202	-11.2326	-80.8328	189.576	-11.3434	-1.66448	191.403	-20.4908	26.0423	194.156	18.7311	16.3838	
259	2.15833	165.731	34.318	29.6139	151.46	43.7771	2.36351	141.178	53.8531	-22.1624	131.564	54.5223	-44.1638	163.251	41.201	-45.7793	131.912	36.2661	-44.0729	135.507	25.9089	-11.9353	157.036	14.903	-50.1316	128.369	15.5606	-36.8058	143.754	4.21412	-4.1938	162.282	-0.206538	-46.5709	133.281	-5.846	-40.9557	137.968	-4.07452	-7.22441	180.075	-20.6031	-43.4763	172.716	-15.6827	-65.8762	168.475	-12.1174	-83.9133	201.291	-11.9761	-5.13273	200.922	-21.5959	28.0166	197.294	20.1404	20.5137	
260	2.16667	162.164	25.2237	30.2204	149.92	33.1302	4.88468	139.972	45.7288	-22.8531	132.987	47.7764	-47.694	166.997	31.7351	-48.1387	138.285	21.9725	-52.2367	137.328	12.6158	-18.1102	169.371	11.0763	-49.4803	137.308	0.381396	-44.2647	151.583	-4.41071	-7.05054	172.136	-5.43077	-49.1489	143.492	-16.1405	-43.8246	148.254	-17.3089	-9.91325	194.842	-19.9829	-45.9934	189.265	-17.4578	-64.8335	184.575	-14.0473	-85.8376	208.975	-10.9142	-0.958485	209.838	-18.2264	28.0905	199.897	17.5489	17.1856	
